# xmcd CD database file
#
# Track frame offsets:
#	150
#	11605
#	27300
#	50600
#	62827
#	75257
#	91345
#	105007
#	115095
#	132137
#	153740
#	163712
#	180470
#	194192
#
# Disc length: 2752 seconds
#
# Revision: 2
# Processed by: cddbd v1.5.2PL0 Copyright (c) Steve Scherf et al.
# Submitted via: CDex 1.51
#
DISCID=ac0abe0e
DTITLE=Nashville Rebels - The Eagle Always Flies Alone
DYEAR=1996
DGENRE=Hillbilly
TTITLE0=Rock'A'Billy Rock
TTITLE1=Take Me Back To The Country
TTITLE2=The Eagle Always Flies Alone
TTITLE3=The Loser
TTITLE4=I Can't See You Crying
TTITLE5=All I Want Is You
TTITLE6=Standing On A Rock
TTITLE7=Lawdy Miss Clawdy
TTITLE8=Desperado
TTITLE9=Deadend Song
TTITLE10=Hot Shot
TTITLE11=Thank God I'm A Truck Drivn' Man
TTITLE12=The King Of Broken Hearts
TTITLE13=Whiskey River
EXTD=YEAR: 1996
EXTT0=
EXTT1=
EXTT2=
EXTT3=
EXTT4=
EXTT5=
EXTT6=
EXTT7=
EXTT8=
EXTT9=
EXTT10=
EXTT11=
EXTT12=
EXTT13=
PLAYORDER=
